<?xml version="1.0" encoding="utf-8"?>
<!-- Generator: Adobe Illustrator 19.2.1, SVG Export Plug-In . SVG Version: 6.00 Build 0)  -->
<svg version="1.1" id="Layer_1" xmlns="http://www.w3.org/2000/svg" xmlns:xlink="http://www.w3.org/1999/xlink" x="0px" y="0px"
	 viewBox="0 0 562.2 562.2" style="enable-background:new 0 0 562.2 562.2;" xml:space="preserve">
<style type="text/css">
	.st0{fill:#FFFFFF;}
	.st1{fill:#E6E6E6;}
	.st2{fill:url(#SVGID_1_);}
	.st3{fill:#19AA8D;}
</style>
<g>
	<circle class="st0" cx="305.8" cy="290.7" r="191.7"/>
	<g>
		<path class="st1" d="M305.8,73.3c-83.1,0-155.4,46.8-192,115.5c5.4-4.1,10.6-4.6,11.6-4.4c2,0.3,12.5,6.1,6.1,26.2
			C161.9,144.6,228.4,99,305.8,99c106,0,191.7,85.7,191.7,191.7s-85.7,191.7-191.7,191.7s-191.7-85.7-191.7-191.7
			c0-8.1,0.5-16.1,1.5-23.9c-1.4-0.6-2.6-1.2-4-2l-21.3-3.4c-1.2,9.5-2,19.3-2,29.1C88.4,410.4,186,508,305.8,508
			s217.4-97.6,217.4-217.4S425.6,73.3,305.8,73.3z"/>
		<path class="st1" d="M100.7,218.8c-0.8,2.1-1.5,4.4-2.1,6.6c0.5-0.3,0.8-0.5,1.2-0.6C100.1,222.5,100.4,220.6,100.7,218.8z"/>
		<path class="st1" d="M115.7,267c2.4-19.9,8-38.7,16.1-56.3c6.3-20-4.3-25.9-6.1-26.2c-1.1-0.2-6.3,0.3-11.6,4.4
			c-5,9.6-9.5,19.6-13.2,29.8c-0.3,1.8-0.6,3.7-1.1,6c-0.5,0.3-0.8,0.5-1.2,0.6c-3.7,11.6-6.4,23.9-8.1,36.3l21.3,3.4
			C113.1,265.6,114.3,266.4,115.7,267z"/>
	</g>
	
		<linearGradient id="SVGID_1_" gradientUnits="userSpaceOnUse" x1="24.3107" y1="169.1299" x2="131.1965" y2="230.8404" gradientTransform="matrix(3.2211 0 0 -3.2211 53.3064 897.2087)">
		<stop  offset="0" style="stop-color:#FFFFFF;stop-opacity:0"/>
		<stop  offset="0.7" style="stop-color:#FFFFFF;stop-opacity:0"/>
		<stop  offset="0.94" style="stop-color:#19AA8D"/>
		<stop  offset="1" style="stop-color:#19AA8D"/>
	</linearGradient>
	<path class="st2" d="M305.8,86.2c105.7,0,191.7,98.7,191.7,204.6c8.4-2.6,17.7-2.3,25.7,1.2v-1.2
		C523.3,170.9,425.6,86.2,305.8,86.2"/>
</g>
<g>
	<path class="st3" d="M484.4,219.3c9.9,25.4,14.1,58.8,12.7,58.3c-20.5-7.3-31.7-11-53.7-18.4c0,3.5,0,5.2,0,8.7
		c21.3,18.1,31.5,27.7,51.3,47c-1.2,8.7-2.3,13.2-3.8,21.9c-2.9,21.9,7.8,26.5,9.3,26.5c1.7,0,14.8-3.2,18.4-24.2
		c0.9-7.8,1.2-11.9,2-19.6c21.9-17.4,32.3-26.5,52.2-45.4c0-3.8,0-5.8,0-9.6c-18.8,6.4-28.5,9.6-47.6,15.6c-0.2,0-3.4,1.1-3.5,1.1"
		/>
</g>
</svg>
