<?xml version="1.0" encoding="utf-8"?>
<!DOCTYPE svg PUBLIC "-//W3C//DTD SVG 1.1//EN" "http://www.w3.org/Graphics/SVG/1.1/DTD/svg11.dtd">
<svg version="1.1" id="Layer_1" xmlns="http://www.w3.org/2000/svg" xmlns:xlink="http://www.w3.org/1999/xlink" x="0px" y="0px"
	 width="300px" height="121px" viewBox="6.343 154.792 499.314 202.415"
	 enable-background="new 6.343 154.792 499.314 202.415" xml:space="preserve">
<g>
	<g>
		<path fill="#ce3b4b" d="M433.879,308.27c-20.492,0-34.77-6.574-44.941-16.107l13.788-20.342
			c7.302,7.318,18.532,13.363,32.489,13.363c8.829,0,14.261-3.021,14.261-8.045c0-13.337-57.174-2.254-57.174-41.255
			c0-16.981,14.253-32.196,40.194-32.196c16.232,0,30.34,4.873,41.111,14.131l-14.261,19.553
			c-8.489-7.127-19.555-10.596-29.557-10.596c-7.638,0-10.955,2.596-10.955,6.979c0,11.681,50.17,4.147,56.556,34.045
			l30.267-113.007H402.898c-17.896,0-36.282,14.533-41.065,32.385l-45.579,170.029h102.791c17.873,0,36.282-14.512,41.069-32.402
			l7.534-28.175C460.563,303.973,449.153,308.27,433.879,308.27"/>
		<path fill="#ce3b4b" d="M148.798,228.116v78.471h-26.111v-78.471h-28.37v-22.745h87.887l13.554-50.579H92.987
			c-17.917,0-36.302,14.533-41.088,32.385L6.343,357.207h102.772c17.903,0,36.297-14.512,41.087-32.402l25.883-96.688
			L148.798,228.116L148.798,228.116z"/>
		<path fill="#ce3b4b" d="M273.188,308.354c-30.192,0-54.771-20.213-54.771-52.362c0-32.172,24.579-52.345,54.771-52.345
			c22.619,0,36.276,11.981,43.257,24.577l-21.852,11.363c-3.79-6.638-11.534-12.894-21.405-12.894
			c-16.556,0-28.215,12.596-28.215,29.299c0,16.556,11.66,29.278,28.215,29.278c7.445,0,15.041-3.043,18.672-6.063v-7.896h-22.746
			v-22.894h48.844v28.554l32.725-122.178H247.93c-17.883,0-36.28,14.533-41.034,32.385l-45.588,170.029h102.773
			c17.914,0,36.299-14.512,41.083-32.402l8.511-31.854C303.357,302.419,289.914,308.354,273.188,308.354"/>
	</g>
</g>
</svg>
