<?xml version="1.0" encoding="utf-8"?>
<!-- Generator: Adobe Illustrator 19.0.0, SVG Export Plug-In . SVG Version: 6.00 Build 0)  -->
<svg version="1.1" id="Layer_1" xmlns="http://www.w3.org/2000/svg" xmlns:xlink="http://www.w3.org/1999/xlink" x="0px" y="0px"
	 viewBox="0 0 307.8 109.8" style="enable-background:new 0 0 307.8 109.8;" xml:space="preserve">
<style type="text/css">
	.st0{fill:#575756;}
	<!-- .st1{fill:#E30613;} -->
	.st1{fill:#ce3b4b;}
	.st2{fill:#FFFFFF;}
</style>
<rect id="XMLID_5_" x="120.9" y="1.3" class="st0" width="187" height="83.8"/>
<rect id="XMLID_2_" x="0" y="1.3" class="st1" width="116.8" height="83.8"/>
<g id="XMLID_334_">
	<path id="XMLID_335_" class="st2" d="M130.6,63.3v-54h10.3v54H130.6z"/>
	<path id="XMLID_337_" class="st2" d="M149.2,43.3c0-3.4,0.8-6.7,2.5-9.9c1.7-3.2,4.1-5.7,7.2-7.4c3.1-1.7,6.6-2.6,10.4-2.6
		c5.8,0,10.6,1.9,14.4,5.8c3.8,3.9,5.7,8.7,5.7,14.5c0,5.8-1.9,10.7-5.7,14.7c-3.8,3.9-8.6,5.9-14.4,5.9c-3.6,0-7-0.8-10.2-2.4
		c-3.3-1.6-5.7-4-7.4-7.1C150.1,51.6,149.2,47.7,149.2,43.3z M159.8,43.8c0,3.8,0.9,6.8,2.8,8.9c1.8,2.1,4.1,3.1,6.8,3.1
		c2.7,0,5-1,6.8-3.1c1.8-2.1,2.8-5.1,2.8-9c0-3.8-0.9-6.8-2.8-8.8s-4.1-3.1-6.8-3.1c-2.7,0-5,1-6.8,3.1
		C160.7,36.9,159.8,39.9,159.8,43.8z"/>
	<path id="XMLID_340_" class="st2" d="M196.6,65.9l11.9,1.4c0,0.7,0.1,1.2,0.3,1.7c0.2,0.4,0.6,0.8,1.1,1.2c0.9,0.7,2.5,1.1,4.7,1.1
		c2.7,0,4.7-0.4,6.1-1.2c0.9-0.5,1.6-1.3,2-2.3c0.4-1.1,0.6-2.7,0.6-5V57c-3.2,4.2-7.1,6.3-11.9,6.3c-5.3,0-9.5-2.2-12.5-6.7
		c-2.4-3.5-3.6-7.9-3.6-13.1c0-3.4,0.4-6.3,1.1-8.7c0.7-2.5,1.9-4.6,3.6-6.3c3.1-3.5,7.1-5.2,11.8-5.2c4.8,0,8.8,2.1,12,6.4v-5.5
		h9.7v35.1c0,4.6-0.4,8-1.1,10.3c-0.4,1.1-0.8,2.1-1.3,3c-0.5,0.9-1.2,1.7-1.9,2.4c-1.4,1.3-3.2,2.3-5.5,3.1
		c-2.3,0.7-5.2,1.1-8.7,1.1c-6.5,0-11.2-1.1-14-3.4c-2.8-2.3-4.2-5.1-4.2-8.6V65.9z M205.9,43c0,4.2,0.8,7.2,2.4,9.1
		c1.6,1.9,3.6,2.9,6,2.9c2.5,0,4.6-1,6.4-3c1.7-2,2.6-4.9,2.6-8.8c0-4-0.8-7.1-2.5-9c-1.7-2-3.8-2.9-6.3-2.9c-2.5,0-4.5,1-6.1,2.9
		C206.7,36.1,205.9,39.1,205.9,43z"/>
	<path id="XMLID_343_" class="st2" d="M243.6,18.9V9.4H254v9.6H243.6z M243.6,63.3V24.2H254v39.1H243.6z"/>
	<path id="XMLID_346_" class="st2" d="M298.7,35.8l-10.3,1.8c0-1-0.2-1.9-0.6-2.6c-0.4-0.7-1-1.4-1.7-2c-1.2-1-2.8-1.5-4.7-1.5
		c-2.6,0-4.7,0.9-6.2,2.7c-1.5,1.8-2.2,4.8-2.2,8.9c0,4.7,0.8,8,2.3,9.9s3.6,2.8,6.2,2.8c2,0,3.6-0.6,4.8-1.7
		c0.7-0.7,1.3-1.5,1.8-2.4c0.5-0.9,0.7-2.1,0.7-3.4l10.3,1.7c-1,4.6-3,8.1-6.1,10.6c-3.1,2.4-7.1,3.6-12.1,3.6
		c-5.7,0-10.3-1.8-13.7-5.4c-3.4-3.6-5.1-8.6-5.1-15c0-6.5,1.7-11.5,5.1-15.1c3.4-3.6,8-5.4,13.9-5.4c4.7,0,8.4,1,11.3,3.1
		C295.5,28.5,297.5,31.6,298.7,35.8z"/>
</g>
<g id="XMLID_290_">
	<path id="XMLID_291_" d="M126.6,102.2l0.3,1.6c-0.5,0.1-1,0.2-1.5,0.2c-0.7,0-1.2-0.1-1.6-0.3s-0.7-0.5-0.8-0.8
		c-0.2-0.3-0.2-1.1-0.2-2.2v-6.2h-1.4V93h1.4v-2.7l1.9-1.1V93h1.9v1.4h-1.9v6.3c0,0.5,0,0.9,0.1,1c0.1,0.1,0.2,0.3,0.3,0.4
		s0.4,0.1,0.7,0.1C125.9,102.2,126.2,102.2,126.6,102.2z"/>
	<path id="XMLID_293_" d="M128.4,103.8V88.9h1.9v5.3c0.9-1,2-1.5,3.4-1.5c0.8,0,1.6,0.2,2.2,0.5s1.1,0.8,1.3,1.3
		c0.3,0.6,0.4,1.4,0.4,2.4v6.8h-1.9V97c0-0.9-0.2-1.6-0.6-2c-0.4-0.4-1-0.6-1.8-0.6c-0.6,0-1.1,0.1-1.6,0.4
		c-0.5,0.3-0.9,0.7-1.1,1.1c-0.2,0.5-0.3,1.1-0.3,2v5.9H128.4z"/>
	<path id="XMLID_295_" d="M148.5,100.3l2,0.2c-0.3,1.1-0.9,2-1.8,2.6c-0.9,0.6-1.9,0.9-3.3,0.9c-1.7,0-3-0.5-4-1.5
		c-1-1-1.5-2.3-1.5-4.1c0-1.8,0.5-3.2,1.5-4.2c1-1,2.3-1.5,3.8-1.5c1.5,0,2.8,0.5,3.7,1.5s1.4,2.4,1.4,4.1c0,0.1,0,0.3,0,0.5H142
		c0.1,1.2,0.4,2.1,1.1,2.7c0.6,0.6,1.4,0.9,2.4,0.9c0.7,0,1.3-0.2,1.8-0.5C147.8,101.7,148.2,101.1,148.5,100.3z M142.1,97.4h6.4
		c-0.1-0.9-0.3-1.6-0.7-2c-0.6-0.7-1.4-1.1-2.4-1.1c-0.9,0-1.6,0.3-2.2,0.8C142.5,95.7,142.2,96.4,142.1,97.4z"/>
	<path id="XMLID_298_" d="M160.8,103.8H159V88.9h1.9v5.3c0.8-1,1.9-1.5,3.1-1.5c0.7,0,1.4,0.1,2,0.4c0.6,0.3,1.1,0.6,1.5,1.1
		c0.4,0.5,0.7,1.1,1,1.8c0.2,0.7,0.3,1.4,0.3,2.2c0,1.8-0.5,3.3-1.4,4.3s-2.1,1.5-3.5,1.5c-1.3,0-2.4-0.5-3.2-1.6V103.8z
		 M160.8,98.3c0,1.3,0.2,2.2,0.6,2.8c0.6,0.9,1.4,1.4,2.5,1.4c0.8,0,1.6-0.3,2.2-1c0.6-0.7,0.9-1.7,0.9-3.1c0-1.4-0.3-2.4-0.9-3.1
		c-0.6-0.7-1.3-1-2.1-1c-0.8,0-1.6,0.3-2.2,1C161.1,96,160.8,97,160.8,98.3z"/>
	<path id="XMLID_301_" d="M179.1,100.3l2,0.2c-0.3,1.1-0.9,2-1.8,2.6c-0.9,0.6-1.9,0.9-3.3,0.9c-1.7,0-3-0.5-4-1.5
		c-1-1-1.5-2.3-1.5-4.1c0-1.8,0.5-3.2,1.5-4.2c1-1,2.3-1.5,3.8-1.5c1.5,0,2.8,0.5,3.7,1.5s1.4,2.4,1.4,4.1c0,0.1,0,0.3,0,0.5h-8.5
		c0.1,1.2,0.4,2.1,1.1,2.7c0.6,0.6,1.4,0.9,2.4,0.9c0.7,0,1.3-0.2,1.8-0.5C178.4,101.7,178.8,101.1,179.1,100.3z M172.7,97.4h6.4
		c-0.1-0.9-0.3-1.6-0.7-2c-0.6-0.7-1.4-1.1-2.4-1.1c-0.9,0-1.6,0.3-2.2,0.8C173.1,95.7,172.8,96.4,172.7,97.4z"/>
	<path id="XMLID_304_" d="M182.7,100.6l1.9-0.3c0.1,0.7,0.4,1.3,0.9,1.7s1.2,0.6,2.1,0.6c0.9,0,1.5-0.2,2-0.5s0.6-0.7,0.6-1.2
		c0-0.4-0.2-0.7-0.6-1c-0.3-0.2-0.9-0.4-2-0.6c-1.4-0.3-2.4-0.6-2.9-0.9s-1-0.6-1.2-1s-0.4-0.9-0.4-1.4c0-0.5,0.1-0.9,0.3-1.3
		c0.2-0.4,0.5-0.8,1-1c0.3-0.2,0.7-0.4,1.2-0.5c0.5-0.1,1.1-0.2,1.7-0.2c0.9,0,1.7,0.1,2.4,0.4c0.7,0.2,1.2,0.6,1.5,1
		c0.3,0.4,0.5,1,0.7,1.7l-1.9,0.2c-0.1-0.6-0.3-1-0.7-1.3c-0.4-0.3-1-0.5-1.7-0.5c-0.9,0-1.5,0.1-1.9,0.4c-0.4,0.3-0.6,0.6-0.6,1
		c0,0.2,0.1,0.5,0.2,0.6c0.2,0.2,0.4,0.4,0.7,0.5c0.2,0.1,0.8,0.2,1.7,0.5c1.4,0.3,2.3,0.6,2.9,0.8c0.5,0.2,1,0.5,1.3,1
		s0.5,0.9,0.5,1.6c0,0.6-0.2,1.2-0.6,1.7c-0.4,0.5-0.9,1-1.6,1.2c-0.7,0.3-1.5,0.4-2.4,0.4c-1.5,0-2.6-0.3-3.4-0.9
		C183.4,102.6,182.9,101.7,182.7,100.6z"/>
	<path id="XMLID_306_" d="M198.7,102.2l0.3,1.6c-0.5,0.1-1,0.2-1.5,0.2c-0.7,0-1.2-0.1-1.6-0.3s-0.7-0.5-0.8-0.8
		c-0.2-0.3-0.2-1.1-0.2-2.2v-6.2h-1.4V93h1.4v-2.7l1.9-1.1V93h1.9v1.4h-1.9v6.3c0,0.5,0,0.9,0.1,1c0.1,0.1,0.2,0.3,0.3,0.4
		s0.4,0.1,0.7,0.1C198.1,102.2,198.3,102.2,198.7,102.2z"/>
	<path id="XMLID_308_" d="M206.7,91v-2.1h1.9V91H206.7z M206.7,103.8V93h1.9v10.8H206.7z"/>
	<path id="XMLID_311_" d="M210.8,100.6l1.9-0.3c0.1,0.7,0.4,1.3,0.9,1.7s1.2,0.6,2.1,0.6c0.9,0,1.5-0.2,2-0.5s0.6-0.7,0.6-1.2
		c0-0.4-0.2-0.7-0.6-1c-0.3-0.2-0.9-0.4-2-0.6c-1.4-0.3-2.4-0.6-2.9-0.9s-1-0.6-1.2-1s-0.4-0.9-0.4-1.4c0-0.5,0.1-0.9,0.3-1.3
		c0.2-0.4,0.5-0.8,1-1c0.3-0.2,0.7-0.4,1.2-0.5c0.5-0.1,1.1-0.2,1.7-0.2c0.9,0,1.7,0.1,2.4,0.4c0.7,0.2,1.2,0.6,1.5,1
		c0.3,0.4,0.5,1,0.7,1.7L218,96c-0.1-0.6-0.3-1-0.7-1.3c-0.4-0.3-1-0.5-1.7-0.5c-0.9,0-1.5,0.1-1.9,0.4c-0.4,0.3-0.6,0.6-0.6,1
		c0,0.2,0.1,0.5,0.2,0.6c0.2,0.2,0.4,0.4,0.7,0.5c0.2,0.1,0.8,0.2,1.7,0.5c1.4,0.3,2.3,0.6,2.9,0.8c0.5,0.2,1,0.5,1.3,1
		s0.5,0.9,0.5,1.6c0,0.6-0.2,1.2-0.6,1.7c-0.4,0.5-0.9,1-1.6,1.2c-0.7,0.3-1.5,0.4-2.4,0.4c-1.5,0-2.6-0.3-3.4-0.9
		C211.5,102.6,211,101.7,210.8,100.6z"/>
	<path id="XMLID_313_" d="M228.7,107.9V93h1.8v1.4c0.4-0.5,0.9-1,1.4-1.2c0.5-0.3,1.2-0.4,1.9-0.4c1,0,1.8,0.2,2.6,0.7
		c0.7,0.5,1.3,1.1,1.7,2c0.4,0.9,0.6,1.8,0.6,2.8c0,1.1-0.2,2.1-0.6,3s-1,1.6-1.8,2c-0.8,0.5-1.6,0.7-2.5,0.7
		c-0.6,0-1.2-0.1-1.7-0.4c-0.5-0.3-0.9-0.6-1.3-1v5.3H228.7z M230.4,98.5c0,1.4,0.3,2.4,0.9,3.1c0.6,0.7,1.3,1,2.2,1
		c0.9,0,1.6-0.3,2.2-1s0.9-1.8,0.9-3.2c0-1.4-0.3-2.4-0.9-3.1s-1.3-1-2.1-1c-0.8,0-1.6,0.4-2.2,1.1C230.8,96,230.4,97.1,230.4,98.5z
		"/>
	<path id="XMLID_316_" d="M240.2,98.4c0-2,0.6-3.5,1.8-4.4c1-0.8,2.2-1.2,3.6-1.2c1.6,0,2.8,0.5,3.8,1.5c1,1,1.5,2.3,1.5,4
		c0,1.4-0.2,2.5-0.7,3.3c-0.4,0.8-1.1,1.4-1.9,1.9c-0.8,0.4-1.8,0.7-2.8,0.7c-1.6,0-2.9-0.5-3.9-1.5
		C240.7,101.6,240.2,100.2,240.2,98.4z M242.2,98.4c0,1.4,0.3,2.4,1,3.1c0.6,0.7,1.4,1,2.4,1c1,0,1.8-0.3,2.4-1c0.6-0.7,1-1.7,1-3.2
		c0-1.3-0.3-2.3-1-3c-0.6-0.7-1.4-1-2.4-1c-1,0-1.8,0.3-2.4,1C242.5,96,242.2,97,242.2,98.4z"/>
	<path id="XMLID_319_" d="M252.4,100.6l1.9-0.3c0.1,0.7,0.4,1.3,0.9,1.7s1.2,0.6,2.1,0.6c0.9,0,1.5-0.2,2-0.5s0.6-0.7,0.6-1.2
		c0-0.4-0.2-0.7-0.6-1c-0.3-0.2-0.9-0.4-2-0.6c-1.4-0.3-2.4-0.6-2.9-0.9s-1-0.6-1.2-1s-0.4-0.9-0.4-1.4c0-0.5,0.1-0.9,0.3-1.3
		c0.2-0.4,0.5-0.8,1-1c0.3-0.2,0.7-0.4,1.2-0.5c0.5-0.1,1.1-0.2,1.7-0.2c0.9,0,1.7,0.1,2.4,0.4c0.7,0.2,1.2,0.6,1.5,1
		c0.3,0.4,0.5,1,0.7,1.7l-1.9,0.2c-0.1-0.6-0.3-1-0.7-1.3c-0.4-0.3-1-0.5-1.7-0.5c-0.9,0-1.5,0.1-1.9,0.4c-0.4,0.3-0.6,0.6-0.6,1
		c0,0.2,0.1,0.5,0.2,0.6c0.2,0.2,0.4,0.4,0.7,0.5c0.2,0.1,0.8,0.2,1.7,0.5c1.4,0.3,2.3,0.6,2.9,0.8c0.5,0.2,1,0.5,1.3,1
		s0.5,0.9,0.5,1.6c0,0.6-0.2,1.2-0.6,1.7c-0.4,0.5-0.9,1-1.6,1.2c-0.7,0.3-1.5,0.4-2.4,0.4c-1.5,0-2.6-0.3-3.4-0.9
		C253.1,102.6,252.6,101.7,252.4,100.6z"/>
	<path id="XMLID_321_" d="M263.4,100.6l1.9-0.3c0.1,0.7,0.4,1.3,0.9,1.7s1.2,0.6,2.1,0.6c0.9,0,1.5-0.2,2-0.5s0.6-0.7,0.6-1.2
		c0-0.4-0.2-0.7-0.6-1c-0.3-0.2-0.9-0.4-2-0.6c-1.4-0.3-2.4-0.6-2.9-0.9s-1-0.6-1.2-1s-0.4-0.9-0.4-1.4c0-0.5,0.1-0.9,0.3-1.3
		c0.2-0.4,0.5-0.8,1-1c0.3-0.2,0.7-0.4,1.2-0.5c0.5-0.1,1.1-0.2,1.7-0.2c0.9,0,1.7,0.1,2.4,0.4c0.7,0.2,1.2,0.6,1.5,1
		c0.3,0.4,0.5,1,0.7,1.7l-1.9,0.2c-0.1-0.6-0.3-1-0.7-1.3c-0.4-0.3-1-0.5-1.7-0.5c-0.9,0-1.5,0.1-1.9,0.4c-0.4,0.3-0.6,0.6-0.6,1
		c0,0.2,0.1,0.5,0.2,0.6c0.2,0.2,0.4,0.4,0.7,0.5c0.2,0.1,0.8,0.2,1.7,0.5c1.4,0.3,2.3,0.6,2.9,0.8c0.5,0.2,1,0.5,1.3,1
		s0.5,0.9,0.5,1.6c0,0.6-0.2,1.2-0.6,1.7c-0.4,0.5-0.9,1-1.6,1.2c-0.7,0.3-1.5,0.4-2.4,0.4c-1.5,0-2.6-0.3-3.4-0.9
		C264.1,102.6,263.6,101.7,263.4,100.6z"/>
	<path id="XMLID_323_" d="M275.2,91v-2.1h1.9V91H275.2z M275.2,103.8V93h1.9v10.8H275.2z"/>
	<path id="XMLID_326_" d="M281.8,103.8H280V88.9h1.9v5.3c0.8-1,1.9-1.5,3.1-1.5c0.7,0,1.4,0.1,2,0.4c0.6,0.3,1.1,0.6,1.5,1.1
		c0.4,0.5,0.7,1.1,1,1.8c0.2,0.7,0.3,1.4,0.3,2.2c0,1.8-0.5,3.3-1.4,4.3s-2.1,1.5-3.5,1.5c-1.3,0-2.4-0.5-3.2-1.6V103.8z
		 M281.8,98.3c0,1.3,0.2,2.2,0.6,2.8c0.6,0.9,1.4,1.4,2.5,1.4c0.8,0,1.6-0.3,2.2-1c0.6-0.7,0.9-1.7,0.9-3.1c0-1.4-0.3-2.4-0.9-3.1
		c-0.6-0.7-1.3-1-2.1-1c-0.8,0-1.6,0.3-2.2,1C282.1,96,281.8,97,281.8,98.3z"/>
	<path id="XMLID_329_" d="M292.2,103.8V88.9h1.9v14.9H292.2z"/>
	<path id="XMLID_331_" d="M305,100.3l2,0.2c-0.3,1.1-0.9,2-1.8,2.6c-0.9,0.6-1.9,0.9-3.3,0.9c-1.7,0-3-0.5-4-1.5
		c-1-1-1.5-2.3-1.5-4.1c0-1.8,0.5-3.2,1.5-4.2c1-1,2.3-1.5,3.8-1.5c1.5,0,2.8,0.5,3.7,1.5s1.4,2.4,1.4,4.1c0,0.1,0,0.3,0,0.5h-8.5
		c0.1,1.2,0.4,2.1,1.1,2.7c0.6,0.6,1.4,0.9,2.4,0.9c0.7,0,1.3-0.2,1.8-0.5C304.3,101.7,304.7,101.1,305,100.3z M298.6,97.4h6.4
		c-0.1-0.9-0.3-1.6-0.7-2c-0.6-0.7-1.4-1.1-2.4-1.1c-0.9,0-1.6,0.3-2.2,0.8C299,95.7,298.7,96.4,298.6,97.4z"/>
</g>
<g id="XMLID_31_">
	<path id="XMLID_282_" class="st2" d="M19.7,36.2l-9.2-1.7c1-3.7,2.8-6.5,5.4-8.4c2.6-1.8,6.4-2.8,11.5-2.8c4.5,0,7.9,0.5,10.2,1.6
		c2.3,1.1,3.8,2.5,4.8,4.2c0.5,0.9,0.9,2,1.1,3.5c0.2,1.5,0.4,3.4,0.4,5.7v12.1c0,3.4,0.2,6,0.6,7.6c0,0.7,0.1,1.2,0.2,1.7
		c0.2,0.5,0.7,1.7,1.6,3.5H35.9l-1-3.1l-0.4-1.2c-1.7,1.7-3.6,3-5.6,3.9c-2,0.9-4.2,1.3-6.5,1.3c-4,0-7.2-1.1-9.5-3.3
		s-3.5-5-3.5-8.3c0-2.1,0.5-4.1,1.6-5.9c1.1-1.8,2.6-3.1,4.5-4c1.9-0.9,4.6-1.7,8.2-2.4c4.9-0.9,8.3-1.8,10-2.5v-1
		c0-2-0.5-3.4-1.5-4.2c-0.9-0.9-2.8-1.3-5.6-1.3c-1.9,0-3.3,0.4-4.4,1.1C21.2,33.1,20.3,34.4,19.7,36.2z M33.7,44.6
		c-1.1,0.4-3.2,0.9-6.2,1.6c-3,0.6-4.9,1.3-5.7,1.8c-1.4,0.9-2,2.2-2,3.7c0,1.5,0.5,2.8,1.6,3.8c1.1,1,2.5,1.6,4.1,1.6
		c1.9,0,3.6-0.6,5.4-1.8c0.7-0.5,1.2-1,1.6-1.5c0.4-0.6,0.7-1.2,0.9-2c0.2-0.8,0.4-2.4,0.4-5V44.6z"/>
	<path id="XMLID_285_" class="st2" d="M64.9,63.3L49,24.2l10.9,0l7.3,20l2.2,6.7l1-3.4l1.1-3.3L79,24.2l10.7,0L74.2,63.3H64.9z"/>
	<path id="XMLID_287_" class="st2" d="M96.1,18.9V9.4h10.3v9.6H96.1z M96.1,63.3V24.2h10.3v39.1H96.1z"/>
</g>
</svg>
